<svg id="Capa_1" enable-background="new 0 0 512 512" height="512" viewBox="0 0 512 512" width="512" xmlns="http://www.w3.org/2000/svg"><g><path d="m465.085 146.14h-419.628l-12.67 12.561v338.138c0 8.373 6.788 15.161 15.161 15.161h416.104c8.373 0 15.161-6.788 15.161-15.161v-338.138z" fill="#e4f6ff"/><path d="m80.175 496.839v-338.138l12.67-12.561h-47.388l-12.67 12.561v338.138c0 8.373 6.788 15.161 15.161 15.161h47.388c-8.373 0-15.161-6.788-15.161-15.161z" fill="#d3effb"/><path d="m428.594 193.401h-35.698c-3.622 0-6.558 2.936-6.558 6.558v35.698c0 3.622 2.936 6.558 6.558 6.558h35.698c3.622 0 6.558-2.936 6.558-6.558v-35.698c0-3.622-2.936-6.558-6.558-6.558z" fill="#b3e59f"/><path d="m351.222 193.401h-35.698c-3.622 0-6.558 2.936-6.558 6.558v35.698c0 3.622 2.936 6.558 6.558 6.558h35.698c3.622 0 6.558-2.936 6.558-6.558v-35.698c-.001-3.622-2.937-6.558-6.558-6.558z" fill="#b3e59f"/><path d="m273.849 193.401h-35.698c-3.622 0-6.558 2.936-6.558 6.558v35.698c0 3.622 2.936 6.558 6.558 6.558h35.698c3.622 0 6.558-2.936 6.558-6.558v-35.698c0-3.622-2.936-6.558-6.558-6.558z" fill="#b3e59f"/><g fill="#b1e4f9"><path d="m119.104 271.763h-35.698c-3.622 0-6.558 2.936-6.558 6.558v35.698c0 3.622 2.936 6.558 6.558 6.558h35.698c3.622 0 6.558-2.936 6.558-6.558v-35.699c0-3.621-2.936-6.557-6.558-6.557z"/><path d="m428.594 271.763h-35.698c-3.622 0-6.558 2.936-6.558 6.558v35.698c0 3.622 2.936 6.558 6.558 6.558h35.698c3.622 0 6.558-2.936 6.558-6.558v-35.699c0-3.621-2.936-6.557-6.558-6.557z"/><path d="m351.222 271.763h-35.698c-3.622 0-6.558 2.936-6.558 6.558v35.698c0 3.622 2.936 6.558 6.558 6.558h35.698c3.622 0 6.558-2.936 6.558-6.558v-35.699c-.001-3.621-2.937-6.557-6.558-6.557z"/><path d="m273.849 271.763h-35.698c-3.622 0-6.558 2.936-6.558 6.558v35.698c0 3.622 2.936 6.558 6.558 6.558h35.698c3.622 0 6.558-2.936 6.558-6.558v-35.699c0-3.621-2.936-6.557-6.558-6.557z"/><path d="m196.477 271.763h-35.698c-3.622 0-6.558 2.936-6.558 6.558v35.698c0 3.622 2.936 6.558 6.558 6.558h35.698c3.622 0 6.558-2.936 6.558-6.558v-35.699c-.001-3.621-2.936-6.557-6.558-6.557z"/><path d="m119.104 350.125h-35.698c-3.622 0-6.558 2.936-6.558 6.558v35.698c0 3.622 2.936 6.558 6.558 6.558h35.698c3.622 0 6.558-2.936 6.558-6.558v-35.698c0-3.622-2.936-6.558-6.558-6.558z"/><path d="m428.594 350.125h-35.698c-3.622 0-6.558 2.936-6.558 6.558v35.698c0 3.622 2.936 6.558 6.558 6.558h35.698c3.622 0 6.558-2.936 6.558-6.558v-35.698c0-3.622-2.936-6.558-6.558-6.558z"/><path d="m351.222 350.125h-35.698c-3.622 0-6.558 2.936-6.558 6.558v35.698c0 3.622 2.936 6.558 6.558 6.558h35.698c3.622 0 6.558-2.936 6.558-6.558v-35.698c-.001-3.622-2.937-6.558-6.558-6.558z"/><path d="m273.849 350.125h-35.698c-3.622 0-6.558 2.936-6.558 6.558v35.698c0 3.622 2.936 6.558 6.558 6.558h35.698c3.622 0 6.558-2.936 6.558-6.558v-35.698c0-3.622-2.936-6.558-6.558-6.558z"/><path d="m196.477 350.125h-35.698c-3.622 0-6.558 2.936-6.558 6.558v35.698c0 3.622 2.936 6.558 6.558 6.558h35.698c3.622 0 6.558-2.936 6.558-6.558v-35.698c-.001-3.622-2.936-6.558-6.558-6.558z"/><path d="m119.104 428.487h-35.698c-3.622 0-6.558 2.936-6.558 6.558v35.698c0 3.622 2.936 6.558 6.558 6.558h35.698c3.622 0 6.558-2.936 6.558-6.558v-35.698c0-3.622-2.936-6.558-6.558-6.558z"/><path d="m273.849 428.487h-35.698c-3.622 0-6.558 2.936-6.558 6.558v35.698c0 3.622 2.936 6.558 6.558 6.558h35.698c3.622 0 6.558-2.936 6.558-6.558v-35.698c0-3.622-2.936-6.558-6.558-6.558z"/><path d="m196.477 428.487h-35.698c-3.622 0-6.558 2.936-6.558 6.558v35.698c0 3.622 2.936 6.558 6.558 6.558h35.698c3.622 0 6.558-2.936 6.558-6.558v-35.698c-.001-3.622-2.936-6.558-6.558-6.558z"/></g><path d="m410.745 235.657v-35.698c0-3.622 2.936-6.558 6.558-6.558h-24.407c-3.622 0-6.558 2.936-6.558 6.558v35.698c0 3.622 2.936 6.558 6.558 6.558h24.407c-3.622-.001-6.558-2.937-6.558-6.558z" fill="#95d6a4"/><path d="m333.373 235.657v-35.698c0-3.622 2.936-6.558 6.557-6.558h-24.407c-3.622 0-6.558 2.936-6.558 6.558v35.698c0 3.622 2.936 6.558 6.558 6.558h24.407c-3.622-.001-6.557-2.937-6.557-6.558z" fill="#95d6a4"/><path d="m256 235.657v-35.698c0-3.622 2.936-6.558 6.558-6.558h-24.407c-3.621 0-6.557 2.936-6.557 6.558v35.698c0 3.622 2.936 6.558 6.557 6.558h24.407c-3.622-.001-6.558-2.937-6.558-6.558z" fill="#95d6a4"/><path d="m101.255 314.019v-35.699c0-3.622 2.936-6.558 6.558-6.558h-24.407c-3.622 0-6.558 2.936-6.558 6.558v35.698c0 3.622 2.936 6.558 6.558 6.558h24.407c-3.622 0-6.558-2.936-6.558-6.557z" fill="#90d8f9"/><path d="m410.745 314.019v-35.699c0-3.622 2.936-6.558 6.558-6.558h-24.407c-3.622 0-6.558 2.936-6.558 6.558v35.698c0 3.622 2.936 6.558 6.558 6.558h24.407c-3.622 0-6.558-2.936-6.558-6.557z" fill="#90d8f9"/><path d="m333.373 314.019v-35.699c0-3.622 2.936-6.558 6.557-6.558h-24.407c-3.622 0-6.558 2.936-6.558 6.558v35.698c0 3.622 2.936 6.558 6.558 6.558h24.407c-3.622 0-6.557-2.936-6.557-6.557z" fill="#90d8f9"/><path d="m256 314.019v-35.699c0-3.622 2.936-6.558 6.558-6.558h-24.407c-3.621 0-6.557 2.936-6.557 6.558v35.698c0 3.622 2.936 6.558 6.557 6.558h24.407c-3.622 0-6.558-2.936-6.558-6.557z" fill="#90d8f9"/><path d="m178.627 314.019v-35.699c0-3.622 2.936-6.558 6.558-6.558h-24.407c-3.622 0-6.558 2.936-6.558 6.558v35.698c0 3.622 2.936 6.558 6.558 6.558h24.407c-3.621 0-6.558-2.936-6.558-6.557z" fill="#90d8f9"/><path d="m101.255 392.381v-35.698c0-3.622 2.936-6.558 6.558-6.558h-24.407c-3.622 0-6.558 2.936-6.558 6.558v35.698c0 3.622 2.936 6.558 6.558 6.558h24.407c-3.622-.001-6.558-2.937-6.558-6.558z" fill="#90d8f9"/><path d="m410.745 392.381v-35.698c0-3.622 2.936-6.558 6.558-6.558h-24.407c-3.622 0-6.558 2.936-6.558 6.558v35.698c0 3.622 2.936 6.558 6.558 6.558h24.407c-3.622-.001-6.558-2.937-6.558-6.558z" fill="#90d8f9"/><path d="m333.373 392.381v-35.698c0-3.622 2.936-6.558 6.557-6.558h-24.407c-3.622 0-6.558 2.936-6.558 6.558v35.698c0 3.622 2.936 6.558 6.558 6.558h24.407c-3.622-.001-6.557-2.937-6.557-6.558z" fill="#90d8f9"/><path d="m256 392.381v-35.698c0-3.622 2.936-6.558 6.558-6.558h-24.407c-3.621 0-6.557 2.936-6.557 6.558v35.698c0 3.622 2.936 6.558 6.557 6.558h24.407c-3.622-.001-6.558-2.937-6.558-6.558z" fill="#90d8f9"/><path d="m178.627 392.381v-35.698c0-3.622 2.936-6.558 6.558-6.558h-24.407c-3.622 0-6.558 2.936-6.558 6.558v35.698c0 3.622 2.936 6.558 6.558 6.558h24.407c-3.621-.001-6.558-2.937-6.558-6.558z" fill="#90d8f9"/><path d="m101.255 470.743v-35.698c0-3.622 2.936-6.558 6.558-6.558h-24.407c-3.622 0-6.558 2.936-6.558 6.558v35.698c0 3.622 2.936 6.558 6.558 6.558h24.407c-3.622-.001-6.558-2.937-6.558-6.558z" fill="#90d8f9"/><path d="m256 470.743v-35.698c0-3.622 2.936-6.558 6.558-6.558h-24.407c-3.621 0-6.557 2.936-6.557 6.558v35.698c0 3.622 2.936 6.558 6.557 6.558h24.407c-3.622-.001-6.558-2.937-6.558-6.558z" fill="#90d8f9"/><path d="m178.627 470.743v-35.698c0-3.622 2.936-6.558 6.558-6.558h-24.407c-3.622 0-6.558 2.936-6.558 6.558v35.698c0 3.622 2.936 6.558 6.558 6.558h24.407c-3.621-.001-6.558-2.937-6.558-6.558z" fill="#90d8f9"/><path d="m464.052 47.838h-16.965l-7.929 7.391h-17.17l-7.656-7.391h-32.755l-7.964 6.53h-16.998l-7.793-6.53h-185.644l-7.707 5.371h-18.028l-7.02-5.371h-32.755l-7.742 3.182h-21.119l-3.894-3.182h-16.965c-8.373 0-15.161 6.788-15.161 15.161v95.702h446.426v-95.702c0-8.374-6.787-15.161-15.161-15.161z" fill="#dd636e"/><g><path d="m86.067 51.02h-17.26l-3.894-3.182h-16.965c-8.373 0-15.161 6.788-15.161 15.161v95.702h47.388v-95.702c0-4.878 2.313-9.206 5.892-11.979z" fill="#da4a54"/></g><path d="m374.834 0h-19.27c-3.724 0-6.743 3.019-6.743 6.742v61.312c0 3.724 3.019 6.742 6.743 6.742h19.27c3.724 0 6.743-3.019 6.743-6.742v-61.312c0-3.723-3.019-6.742-6.743-6.742z" fill="#ffe07d"/><path d="m440.344 0h-19.27c-3.724 0-6.743 3.019-6.743 6.742v61.312c0 3.724 3.019 6.742 6.743 6.742h19.27c3.724 0 6.743-3.019 6.743-6.742v-61.312c0-3.723-3.019-6.742-6.743-6.742z" fill="#ffe07d"/><path d="m90.925 0h-19.27c-3.724 0-6.743 3.019-6.743 6.742v61.312c0 3.724 3.019 6.742 6.743 6.742h19.27c3.724 0 6.743-3.019 6.743-6.742v-61.312c0-3.723-3.019-6.742-6.743-6.742z" fill="#ffe07d"/><path d="m156.435 0h-19.27c-3.724 0-6.743 3.019-6.743 6.742v61.312c0 3.724 3.019 6.742 6.743 6.742h19.27c3.724 0 6.743-3.019 6.743-6.742v-61.312c0-3.723-3.019-6.742-6.743-6.742z" fill="#ffe07d"/><path d="m365.2 68.055v-61.313c0-3.724 3.019-6.742 6.743-6.742h-16.378c-3.724 0-6.743 3.019-6.743 6.742v61.312c0 3.724 3.019 6.742 6.743 6.742h16.378c-3.725.001-6.743-3.017-6.743-6.741z" fill="#ffc250"/><path d="m430.71 68.055v-61.313c0-3.724 3.019-6.742 6.743-6.742h-16.378c-3.724 0-6.743 3.019-6.743 6.742v61.312c0 3.724 3.019 6.742 6.743 6.742h16.378c-3.724.001-6.743-3.017-6.743-6.741z" fill="#ffc250"/><path d="m81.291 68.055v-61.313c0-3.723 3.018-6.742 6.742-6.742h-16.377c-3.724 0-6.743 3.019-6.743 6.742v61.312c0 3.724 3.019 6.742 6.743 6.742h16.378c-3.725.001-6.743-3.017-6.743-6.741z" fill="#ffc250"/><path d="m146.801 68.055v-61.313c0-3.724 3.019-6.742 6.743-6.742h-16.378c-3.724 0-6.743 3.019-6.743 6.742v61.312c0 3.724 3.019 6.742 6.743 6.742h16.378c-3.724.001-6.743-3.017-6.743-6.741z" fill="#ffc250"/><path d="m320.684 86.892h-129.367c-3.724 0-6.742 3.019-6.742 6.743v19.27c0 3.724 3.019 6.743 6.742 6.743h129.367c3.724 0 6.742-3.019 6.742-6.743v-19.27c0-3.725-3.019-6.743-6.742-6.743z" fill="#da4a54"/><path d="m231.593 112.904v-19.27c0-3.724 3.019-6.743 6.742-6.743h-47.019c-3.724 0-6.742 3.019-6.742 6.743v19.27c0 3.724 3.019 6.743 6.742 6.743h47.019c-3.723 0-6.742-3.019-6.742-6.743z" fill="#d82e3d"/></g></svg>