<?xml version="1.0" encoding="iso-8859-1"?>
<!-- Generator: Adobe Illustrator 19.0.0, SVG Export Plug-In . SVG Version: 6.00 Build 0)  -->
<svg version="1.1" id="Capa_1" xmlns="http://www.w3.org/2000/svg" xmlns:xlink="http://www.w3.org/1999/xlink" x="0px" y="0px"
	 viewBox="0 0 512 512" style="enable-background:new 0 0 512 512;" xml:space="preserve">
<path style="fill:#69D5FF;" d="M439.107,134.633H424.59c0-47.886-38.819-86.705-86.705-86.705c-14.303,0-27.784,3.485-39.676,9.618
	C286.765,44.006,272.361,33.052,256,25.667l-20.016,139.329L256,280.419h183.107c40.258,0,72.893-32.635,72.893-72.893
	S479.365,134.633,439.107,134.633z"/>
<path style="fill:#AEECFF;" d="M206.908,15.135c-65.997,0-119.497,53.501-119.497,119.498H72.893
	C32.635,134.633,0,167.268,0,207.526s32.635,72.893,72.893,72.893H256V25.667C241.023,18.906,224.408,15.135,206.908,15.135z"/>
<path style="fill:#CCCDD2;" d="M291.957,152.121L291.957,152.121l-20.016,17.882l20.016,12.118l0,0
	c32.328,0,58.629,26.301,58.629,58.629v118.598h30V240.75C380.586,191.879,340.827,152.121,291.957,152.121z"/>
<path style="fill:#F5F5F6;" d="M245.992,164.996c-25.56,15.567-42.664,43.7-42.664,75.753v118.598h30V240.75
	c0-13.714,4.746-26.333,12.664-36.33c10.748-13.569,27.351-22.299,45.965-22.299v-30
	C275.14,152.121,259.402,156.829,245.992,164.996z"/>
<polygon style="fill:#FFC813;" points="403.832,329.323 291.957,329.323 271.941,406 291.957,496.865 403.832,496.865 "/>
<polygon style="fill:#FFDF78;" points="245.992,329.323 180.081,329.323 180.081,496.865 245.992,496.865 291.957,496.865 
	291.957,329.323 "/>
<path style="fill:#FFE6A1;" d="M306.957,468.549v-37.891c11.667-5.597,19.723-17.519,19.723-31.323
	c0-19.177-15.546-34.723-34.723-34.723l-10.008,39.886l10.008,64.05L306.957,468.549L306.957,468.549z"/>
<path style="fill:#FFFFFF;" d="M257.234,399.335c0,13.804,8.056,25.726,19.723,31.323v37.89h15V364.612
	C272.78,364.612,257.234,380.158,257.234,399.335z"/>
<g>
</g>
<g>
</g>
<g>
</g>
<g>
</g>
<g>
</g>
<g>
</g>
<g>
</g>
<g>
</g>
<g>
</g>
<g>
</g>
<g>
</g>
<g>
</g>
<g>
</g>
<g>
</g>
<g>
</g>
</svg>
