<svg height="512" viewBox="0 0 512 512" width="512" xmlns="http://www.w3.org/2000/svg" xmlns:xlink="http://www.w3.org/1999/xlink"><linearGradient id="New_Gradient_Swatch_3" gradientUnits="userSpaceOnUse" x1="113.757" x2="398.243" y1="425.757" y2="141.272"><stop offset=".011" stop-color="#606082"/><stop offset="1" stop-color="#83839e"/></linearGradient><linearGradient id="New_Gradient_Swatch_11" gradientUnits="userSpaceOnUse" x1="109.864" x2="297.545" y1="421.864" y2="234.183"><stop offset=".011" stop-color="#60c6be"/><stop offset="1" stop-color="#80d1cb"/></linearGradient><linearGradient id="New_Gradient_Swatch_5" gradientUnits="userSpaceOnUse" x1="204.295" x2="436.78" y1="516.295" y2="283.81"><stop offset=".011" stop-color="#f8c73f"/><stop offset="1" stop-color="#fada7f"/></linearGradient><g id="_23-direction" data-name="23-direction"><g id="gradient"><path d="m360.235 103.264-95.75-95.749a12 12 0 0 0 -16.97 0l-96 96a12 12 0 0 0 -1.653 14.91 12.342 12.342 0 0 0 10.5 5.575h35.638v384h120v-384h36a12.006 12.006 0 0 0 11.711-9.369 12.336 12.336 0 0 0 -3.476-11.367z" fill="url(#New_Gradient_Swatch_3)"/><path d="m256 308a12 12 0 0 1 -12-12v-24a12 12 0 0 1 24 0v24a12 12 0 0 1 -12 12zm0-88a12 12 0 0 1 -12-12v-24a12 12 0 0 1 24 0v24a12 12 0 0 1 -12 12zm0-88a12 12 0 0 1 -12-12v-24a12 12 0 0 1 24 0v24a12 12 0 0 1 -12 12z" fill="#ededf1"/><path d="m192 180h-68v-35.229a12.319 12.319 0 0 0 -5.585-10.489 12.007 12.007 0 0 0 -14.9 1.66l-96 96a12 12 0 0 0 0 16.971l96 96a12.009 12.009 0 0 0 14.913 1.652 12.328 12.328 0 0 0 5.572-10.488v-35.714l68-.363a4 4 0 0 1 4 4v204h120v-204a124 124 0 0 0 -124-124z" fill="url(#New_Gradient_Swatch_11)"/><g fill="#ededf1"><path d="m256 356a12 12 0 0 1 -12-12v-12a12 12 0 0 1 24 0v12a12 12 0 0 1 -12 12z"/><path d="m252.079 300.509a12 12 0 0 1 -11.343-8.089 59.707 59.707 0 0 0 -5.919-12.336 12 12 0 0 1 20.308-12.791 83.73 83.73 0 0 1 8.3 17.3 12.008 12.008 0 0 1 -11.345 15.917z"/><path d="m212.026 257.663a11.976 11.976 0 0 1 -4.67-.951 59.71 59.71 0 0 0 -13.126-3.846 12 12 0 0 1 4.061-23.654 83.668 83.668 0 0 1 18.415 5.4 12 12 0 0 1 -4.68 23.055zm-59.626-5.663h-16.47a12 12 0 1 1 0-24h16.47a12 12 0 0 1 0 24z"/><path d="m92 252h-12a12 12 0 0 1 0-24h12a12 12 0 0 1 0 24z"/></g><path d="m504.485 351.515-95.749-95.75a12.336 12.336 0 0 0 -11.367-3.476 12.006 12.006 0 0 0 -9.369 11.711v35.572h-68a124 124 0 0 0 -124 124v84.428h120v-84.428a3.991 3.991 0 0 1 3.936-4l68.064.364v35.716a12.324 12.324 0 0 0 5.571 10.485 12.011 12.011 0 0 0 14.914-1.652l96-96a12 12 0 0 0 0-16.97z" fill="url(#New_Gradient_Swatch_5)"/><path d="m256 500a12 12 0 0 1 -12-12v-12a12 12 0 0 1 24 0v12a12 12 0 0 1 -12 12z" fill="#ededf1"/><path d="m256.157 439.4q-.382 0-.768-.024a12 12 0 0 1 -11.22-12.732 83.844 83.844 0 0 1 4-20.836 12 12 0 0 1 22.8 7.478 59.833 59.833 0 0 0 -2.853 14.869 12 12 0 0 1 -11.959 11.245z" fill="#ededf1"/><path d="m288.627 383.718a12 12 0 0 1 -6.584-22.04 83.647 83.647 0 0 1 19.082-9.283 12 12 0 1 1 7.674 22.74 59.738 59.738 0 0 0 -13.61 6.621 11.942 11.942 0 0 1 -6.562 1.962zm82.756-11.718h-18.227a12 12 0 1 1 0-24h18.227a12 12 0 1 1 0 24z" fill="#ededf1"/><path d="m432 372h-12a12 12 0 0 1 0-24h12a12 12 0 0 1 0 24z" fill="#ededf1"/></g></g></svg>