<svg id="Capa_1" enable-background="new 0 0 512 512" height="512" viewBox="0 0 512 512" width="512" xmlns="http://www.w3.org/2000/svg"><g><g><g><path d="m285.716 297.386c-7.754 0-15.331-.771-22.663-2.229v149.18h43.535v-148.836c-6.773 1.235-13.748 1.885-20.872 1.885z" fill="#01d0fb"/><path d="m263.053 295.157v149.18h17.113v-147.087c-5.827-.276-11.541-.985-17.113-2.093z" fill="#01c0fa"/><path d="m230.836 444.336v-117.898c0-2.039-1.653-3.692-3.692-3.692h-36.151c-2.039 0-3.692 1.653-3.692 3.692v117.899h43.535z" fill="#fed402"/><path d="m204.033 444.336v-117.898c0-2.039 1.653-3.692 3.692-3.692h-16.732c-2.039 0-3.692 1.653-3.692 3.692v117.899h16.732z" fill="#fac600"/><path d="m155.085 444.336v-183.298c0-2.039-1.653-3.692-3.692-3.692h-36.151c-2.039 0-3.692 1.653-3.692 3.692v183.298z" fill="#01d0fb"/><path d="m128.803 444.336v-183.298c0-2.039 1.653-3.692 3.692-3.692h-17.254c-2.039 0-3.692 1.653-3.692 3.692v183.298z" fill="#01c0fa"/><path d="m79.333 444.336v-257.211c0-2.039-1.653-3.692-3.692-3.692h-36.151c-2.039 0-3.692 1.653-3.692 3.692v257.212h43.535z" fill="#05e39c"/><path d="m52.785 444.336v-257.211c0-2.039 1.653-3.692 3.692-3.692h-16.987c-2.039 0-3.692 1.653-3.692 3.692v257.212h16.987z" fill="#0ed290"/></g><g><path d="m334.886 458.336h-327.386c-4.143 0-7.5-3.358-7.5-7.5s3.357-7.5 7.5-7.5h327.386c4.143 0 7.5 3.358 7.5 7.5s-3.358 7.5-7.5 7.5z" fill="#a8d3d8"/></g></g><g><g><path d="m414.633 286.767-36.025-36.026c-6.678 8.921-14.609 16.852-23.53 23.53l36.026 36.026z" fill="#a8d3d8"/></g><g><path d="m366.225 264.755c-3.514 3.395-7.229 6.583-11.147 9.516l36.026 36.026 10.332-10.332z" fill="#8ebac5"/></g><g><path d="m507.54 383.929-18.626 18.626c-5.946 5.946-15.587 5.946-21.533 0l-80.647-80.647c-2.403-2.403-2.403-6.3 0-8.703l31.456-31.456c2.403-2.403 6.3-2.403 8.703 0l80.647 80.647c5.947 5.946 5.947 15.587 0 21.533z" fill="#678d98"/></g><g><path d="m420.922 321.909c-2.403-2.403-2.403-6.3 0-8.703l18.714-18.714-12.742-12.742c-2.403-2.403-6.3-2.403-8.703 0l-31.456 31.456c-2.403 2.403-2.403 6.3 0 8.703l80.646 80.647c5.946 5.946 15.587 5.946 21.533 0l6.327-6.327z" fill="#537983"/></g><path d="m285.716 64.373c-19.068 0-37.07 4.564-52.976 12.656v49.165c0 1.128-.917 2.045-2.045 2.045h-49.248c-8.143 15.946-12.737 34.007-12.737 53.141 0 64.621 52.386 117.006 117.006 117.006s117.006-52.386 117.006-117.007-52.385-117.006-117.006-117.006z" fill="#678d98"/><g fill="#537983"><path d="m232.74 105.516c4.561-3.194 9.417-5.993 14.526-8.335 16.172-15.605 36.827-26.596 59.844-30.849-6.937-1.282-14.087-1.958-21.395-1.958-19.068 0-37.07 4.564-52.976 12.656v28.486z"/><path d="m193.146 181.379c0-19.76 6.227-38.091 16.817-53.141h-28.515c-8.143 15.946-12.738 34.007-12.738 53.141 0 64.621 52.386 117.006 117.006 117.006 7.308 0 14.458-.676 21.395-1.958-23.017-4.253-43.671-15.244-59.843-30.848-31.905-14.627-54.122-46.866-54.122-84.2z"/></g><path d="m285.716 101.809c-20.33 0-38.895 7.674-52.976 20.264v4.12c0 1.128-.917 2.045-2.045 2.045h-4.143c-12.677 14.1-20.407 32.732-20.407 53.141 0 43.876 35.695 79.571 79.57 79.571 43.876 0 79.571-35.695 79.571-79.571.001-43.875-35.694-79.57-79.57-79.57z" fill="#c8effe"/><path d="m233.781 181.379c0-35.836 22.026-66.606 53.242-79.538-.437-.007-.869-.033-1.307-.033-20.33 0-38.895 7.674-52.976 20.264v4.12c0 1.128-.917 2.045-2.045 2.045h-4.143c-12.677 14.1-20.407 32.732-20.407 53.141 0 43.876 35.695 79.571 79.57 79.571.438 0 .871-.026 1.308-.033-31.216-12.93-53.242-43.7-53.242-79.537z" fill="#99e6fc"/><path d="m285.716 87.809c-19.651 0-37.903 6.094-52.976 16.485v19.116c13.98-12.787 32.581-20.601 52.976-20.601 43.324 0 78.571 35.247 78.571 78.571s-35.247 78.571-78.571 78.571-78.57-35.247-78.57-78.571c0-20.476 7.88-39.141 20.758-53.141h-19.159c-10.46 15.104-16.599 33.418-16.599 53.141 0 51.595 41.976 93.571 93.57 93.571 51.596 0 93.571-41.976 93.571-93.571s-41.975-93.571-93.571-93.571z" fill="#8ebac5"/><path d="m285.302 182.379h49.733l2.457-1c0-28.549-23.227-51.775-51.775-51.775-14.286 0-27.24 5.817-36.617 15.206l1.183 2.595z" fill="#fd5426"/><g><path d="m285.716 181.379h51.775c0 28.403-23.372 51.775-51.775 51.775s-51.775-23.372-51.775-51.775c0-13.715 5.449-26.883 15.141-36.587z" fill="#01d0fb"/></g><g><path d="m250.614 181.379c0-9.716 2.747-19.15 7.787-27.28l-9.319-9.307c-9.692 9.704-15.141 22.872-15.141 36.587 0 28.403 23.372 51.775 51.775 51.775 2.836 0 5.619-.243 8.337-.691-24.498-4.036-43.439-25.517-43.439-51.084z" fill="#01c0fa"/></g></g><g><g><path d="m230.695 129.239h-191.852c-1.682 0-3.045-1.363-3.045-3.045v-69.485c0-1.682 1.363-3.045 3.045-3.045h191.852c1.682 0 3.045 1.363 3.045 3.045v69.484c.001 1.682-1.363 3.046-3.045 3.046z" fill="#fd5426"/></g><g><path d="m85.154 126.193v-69.484c0-1.682 1.363-3.045 3.045-3.045h-49.356c-1.682 0-3.045 1.363-3.045 3.045v69.484c0 1.682 1.363 3.045 3.045 3.045h49.357c-1.682.001-3.046-1.363-3.046-3.045z" fill="#ef4424"/></g><g><g><path d="m94.597 98.951h-25.301c-4.143 0-7.5-3.358-7.5-7.5s3.357-7.5 7.5-7.5h25.301c4.143 0 7.5 3.358 7.5 7.5s-3.358 7.5-7.5 7.5z" fill="#d73d24"/></g><g><path d="m200.242 98.951h-82.222c-4.143 0-7.5-3.358-7.5-7.5s3.357-7.5 7.5-7.5h82.222c4.143 0 7.5 3.358 7.5 7.5s-3.357 7.5-7.5 7.5z" fill="#d73d24"/></g></g></g></g></svg>