<svg id="Capa_1" enable-background="new 0 0 512.058 512.058" height="512" viewBox="0 0 512.058 512.058" width="512" xmlns="http://www.w3.org/2000/svg"><g><path d="m241.029 245.321h30v208h-30z" fill="#4d578c"/><path d="m256.029 245.321h15v208h-15z" fill="#303a6d"/><ellipse cx="256.029" cy="197.321" fill="#fed843" rx="63.19" ry="63"/><path d="m319.219 197.321c0 34.73-28.35 63-63.19 63v-126c34.84 0 63.19 28.261 63.19 63z" fill="#ffbe00"/><g fill="#00a3ee"><path d="m361.037 255.95-21.17-21.256c18.193-18.12 18.19-56.627 0-74.744l21.17-21.256c29.964 29.843 30.013 87.364 0 117.256z"/><path d="m411.309 292.908-21.172-21.256c36.805-36.66 36.801-112.005.001-148.659l21.17-21.256c48.529 48.334 48.57 142.793.001 191.171z"/><path d="m459.439 335.908-21.172-21.256c58.403-58.169 58.408-176.484.001-234.659l21.17-21.256c70.131 69.852 70.189 207.26.001 277.171z"/></g><path d="m151.021 255.95c-29.964-29.843-30.013-87.364 0-117.256l21.17 21.256c-18.193 18.12-18.19 56.627 0 74.744z" fill="#4dc3ff"/><path d="m100.749 292.908c-48.526-48.336-48.569-142.795.001-191.171l21.17 21.256c-36.805 36.66-36.799 112.005.001 148.659z" fill="#4dc3ff"/><path d="m52.619 335.908c-70.129-69.852-70.189-207.26.001-277.171l21.17 21.256c-58.402 58.171-58.407 176.485.001 234.659z" fill="#4dc3ff"/></g></svg>